<svg xmlns="http://www.w3.org/2000/svg" version="1.1" xmlns:xlink="http://www.w3.org/1999/xlink" xmlns:svgjs="http://svgjs.dev/svgjs" width="1440" height="100%" preserveAspectRatio="none" viewBox="0 0 1440 200">
    <g mask="url(&quot;#SvgjsMask1097&quot;)" fill="none">
        <rect width="1440" height="100%" x="0" y="0" fill="rgba(244, 194, 61, 1)"></rect>
        <path d="M0,511.732C93.941,518.242,158.2,420.334,237.039,368.84C315.177,317.805,429.292,298.317,461.09,210.573C493.064,122.343,412.464,35.148,391.082,-56.229C372.064,-137.503,388.118,-226.855,342.394,-296.686C293.818,-370.872,217.483,-425.933,132.476,-451.174C47.34,-476.454,-42.215,-458.854,-128.14,-436.403C-216.298,-413.369,-316.502,-394.271,-369.361,-320.053C-421.541,-246.787,-397.088,-147.19,-398.177,-57.249C-399.123,20.925,-407.956,100.361,-375.311,171.399C-342.708,242.347,-274.668,284.939,-216.827,337.389C-146.705,400.976,-94.433,505.188,0,511.732" fill="#f0b20e"></path>
        <path d="M1440 685.068C1529.323 679.807 1602.0140000000001 616.546 1671.353 559.992 1734.31 508.643 1784.783 446.709 1821.251 374.11199999999997 1858.85 299.264 1888.974 219.752 1884.276 136.123 1879.33 48.07300000000001 1849.032-37.84700000000001 1794.23-106.94200000000001 1738.027-177.803 1660.137-228.72000000000003 1573.725-255.425 1486.542-282.368 1382.993-306.199 1305.527-257.973 1228.239-209.858 1247.969-86.82400000000001 1190.059-16.57499999999999 1134.498 50.82400000000001 994.857 47.75200000000001 982.248 134.185 969.649 220.552 1101.995 258.40999999999997 1138.3690000000001 337.75 1174.655 416.899 1133.353 522.575 1190.445 588.315 1250.155 657.069 1349.096 690.422 1440 685.068" fill="#f7d16e"></path>
    </g>
    <defs>
        <mask id="SvgjsMask1097">
            <rect width="1440" height="100%" fill="#ffffff"></rect>
        </mask>
    </defs>
</svg>